<mxfile host="app.diagrams.net" agent="Mozilla/5.0 (Windows NT 10.0; Win64; x64) AppleWebKit/537.36 (KHTML, like Gecko) Chrome/140.0.0.0 Safari/537.36 Edg/140.0.0.0" version="28.2.5">
  <diagram name="Trang-1" id="CjH1w59uPpAKWMkMjewL">
    <mxGraphModel dx="1691" dy="1613" grid="1" gridSize="10" guides="1" tooltips="1" connect="1" arrows="1" fold="1" page="1" pageScale="1" pageWidth="827" pageHeight="1169" math="0" shadow="0">
      <root>
        <mxCell id="0" />
        <mxCell id="1" parent="0" />
        <mxCell id="96N8lXyZkQnQ6zD-KgBr-1" value="GameObject" style="swimlane;fontStyle=1;align=center;verticalAlign=top;childLayout=stackLayout;horizontal=1;startSize=26;horizontalStack=0;resizeParent=1;resizeParentMax=0;resizeLast=0;collapsible=1;marginBottom=0;whiteSpace=wrap;html=1;" parent="1" vertex="1">
          <mxGeometry x="260" y="-50" width="160" height="270" as="geometry" />
        </mxCell>
        <mxCell id="96N8lXyZkQnQ6zD-KgBr-2" value="- x: int&lt;br&gt;- y: int&lt;div&gt;-width: int&lt;/div&gt;&lt;div&gt;- height: int&lt;/div&gt;&lt;div&gt;- image&lt;/div&gt;" style="text;strokeColor=none;fillColor=none;align=left;verticalAlign=top;spacingLeft=4;spacingRight=4;overflow=hidden;rotatable=0;points=[[0,0.5],[1,0.5]];portConstraint=eastwest;whiteSpace=wrap;html=1;" parent="96N8lXyZkQnQ6zD-KgBr-1" vertex="1">
          <mxGeometry y="26" width="160" height="104" as="geometry" />
        </mxCell>
        <mxCell id="96N8lXyZkQnQ6zD-KgBr-3" value="" style="line;strokeWidth=1;fillColor=none;align=left;verticalAlign=middle;spacingTop=-1;spacingLeft=3;spacingRight=3;rotatable=0;labelPosition=right;points=[];portConstraint=eastwest;strokeColor=inherit;" parent="96N8lXyZkQnQ6zD-KgBr-1" vertex="1">
          <mxGeometry y="130" width="160" height="8" as="geometry" />
        </mxCell>
        <mxCell id="96N8lXyZkQnQ6zD-KgBr-4" value="+GameObject(x, y, width, height, imagePath)&lt;br&gt;+update() : void&lt;div&gt;+render() : void&lt;br&gt;+ getX() : int&lt;br&gt;+ getY() : int&lt;br&gt;+ setX() : void&lt;br&gt;+ setY() : void&lt;/div&gt;" style="text;strokeColor=none;fillColor=none;align=left;verticalAlign=top;spacingLeft=4;spacingRight=4;overflow=hidden;rotatable=0;points=[[0,0.5],[1,0.5]];portConstraint=eastwest;whiteSpace=wrap;html=1;" parent="96N8lXyZkQnQ6zD-KgBr-1" vertex="1">
          <mxGeometry y="138" width="160" height="132" as="geometry" />
        </mxCell>
        <mxCell id="96N8lXyZkQnQ6zD-KgBr-5" value="Paddle" style="swimlane;fontStyle=1;align=center;verticalAlign=top;childLayout=stackLayout;horizontal=1;startSize=26;horizontalStack=0;resizeParent=1;resizeParentMax=0;resizeLast=0;collapsible=1;marginBottom=0;whiteSpace=wrap;html=1;" parent="1" vertex="1">
          <mxGeometry x="-100" y="536" width="160" height="160" as="geometry" />
        </mxCell>
        <mxCell id="96N8lXyZkQnQ6zD-KgBr-6" value="- speed" style="text;strokeColor=none;fillColor=none;align=left;verticalAlign=top;spacingLeft=4;spacingRight=4;overflow=hidden;rotatable=0;points=[[0,0.5],[1,0.5]];portConstraint=eastwest;whiteSpace=wrap;html=1;" parent="96N8lXyZkQnQ6zD-KgBr-5" vertex="1">
          <mxGeometry y="26" width="160" height="26" as="geometry" />
        </mxCell>
        <mxCell id="96N8lXyZkQnQ6zD-KgBr-7" value="" style="line;strokeWidth=1;fillColor=none;align=left;verticalAlign=middle;spacingTop=-1;spacingLeft=3;spacingRight=3;rotatable=0;labelPosition=right;points=[];portConstraint=eastwest;strokeColor=inherit;" parent="96N8lXyZkQnQ6zD-KgBr-5" vertex="1">
          <mxGeometry y="52" width="160" height="8" as="geometry" />
        </mxCell>
        <mxCell id="96N8lXyZkQnQ6zD-KgBr-8" value="+ Paddle(x, y, width, height, speed, imagePath)&amp;nbsp;: constructor&lt;br&gt;+ handleInput()&lt;br&gt;+ update()" style="text;strokeColor=none;fillColor=none;align=left;verticalAlign=top;spacingLeft=4;spacingRight=4;overflow=hidden;rotatable=0;points=[[0,0.5],[1,0.5]];portConstraint=eastwest;whiteSpace=wrap;html=1;" parent="96N8lXyZkQnQ6zD-KgBr-5" vertex="1">
          <mxGeometry y="60" width="160" height="100" as="geometry" />
        </mxCell>
        <mxCell id="96N8lXyZkQnQ6zD-KgBr-9" value="Extends" style="endArrow=block;endSize=16;endFill=0;html=1;rounded=0;exitX=0.5;exitY=0;exitDx=0;exitDy=0;entryX=0.369;entryY=1.025;entryDx=0;entryDy=0;entryPerimeter=0;" parent="1" source="96N8lXyZkQnQ6zD-KgBr-5" target="96N8lXyZkQnQ6zD-KgBr-36" edge="1">
          <mxGeometry width="160" relative="1" as="geometry">
            <mxPoint x="330" y="230" as="sourcePoint" />
            <mxPoint x="490" y="230" as="targetPoint" />
          </mxGeometry>
        </mxCell>
        <mxCell id="96N8lXyZkQnQ6zD-KgBr-10" value="Ball" style="swimlane;fontStyle=1;align=center;verticalAlign=top;childLayout=stackLayout;horizontal=1;startSize=26;horizontalStack=0;resizeParent=1;resizeParentMax=0;resizeLast=0;collapsible=1;marginBottom=0;whiteSpace=wrap;html=1;" parent="1" vertex="1">
          <mxGeometry x="130" y="570" width="160" height="140" as="geometry" />
        </mxCell>
        <mxCell id="96N8lXyZkQnQ6zD-KgBr-11" value="- diameter : float" style="text;strokeColor=none;fillColor=none;align=left;verticalAlign=top;spacingLeft=4;spacingRight=4;overflow=hidden;rotatable=0;points=[[0,0.5],[1,0.5]];portConstraint=eastwest;whiteSpace=wrap;html=1;" parent="96N8lXyZkQnQ6zD-KgBr-10" vertex="1">
          <mxGeometry y="26" width="160" height="26" as="geometry" />
        </mxCell>
        <mxCell id="96N8lXyZkQnQ6zD-KgBr-12" value="" style="line;strokeWidth=1;fillColor=none;align=left;verticalAlign=middle;spacingTop=-1;spacingLeft=3;spacingRight=3;rotatable=0;labelPosition=right;points=[];portConstraint=eastwest;strokeColor=inherit;" parent="96N8lXyZkQnQ6zD-KgBr-10" vertex="1">
          <mxGeometry y="52" width="160" height="8" as="geometry" />
        </mxCell>
        <mxCell id="96N8lXyZkQnQ6zD-KgBr-13" value="+ intersect(GameObject)&lt;br&gt;+ bounceOff(Direction)" style="text;strokeColor=none;fillColor=none;align=left;verticalAlign=top;spacingLeft=4;spacingRight=4;overflow=hidden;rotatable=0;points=[[0,0.5],[1,0.5]];portConstraint=eastwest;whiteSpace=wrap;html=1;" parent="96N8lXyZkQnQ6zD-KgBr-10" vertex="1">
          <mxGeometry y="60" width="160" height="80" as="geometry" />
        </mxCell>
        <mxCell id="96N8lXyZkQnQ6zD-KgBr-14" value="Brick&lt;div&gt;&lt;br&gt;&lt;/div&gt;" style="swimlane;fontStyle=1;align=center;verticalAlign=top;childLayout=stackLayout;horizontal=1;startSize=26;horizontalStack=0;resizeParent=1;resizeParentMax=0;resizeLast=0;collapsible=1;marginBottom=0;whiteSpace=wrap;html=1;" parent="1" vertex="1">
          <mxGeometry x="530" y="350" width="160" height="128" as="geometry" />
        </mxCell>
        <mxCell id="96N8lXyZkQnQ6zD-KgBr-15" value="+ health : int&lt;br&gt;+ isDestroyed : bool" style="text;strokeColor=none;fillColor=none;align=left;verticalAlign=top;spacingLeft=4;spacingRight=4;overflow=hidden;rotatable=0;points=[[0,0.5],[1,0.5]];portConstraint=eastwest;whiteSpace=wrap;html=1;" parent="96N8lXyZkQnQ6zD-KgBr-14" vertex="1">
          <mxGeometry y="26" width="160" height="44" as="geometry" />
        </mxCell>
        <mxCell id="96N8lXyZkQnQ6zD-KgBr-16" value="" style="line;strokeWidth=1;fillColor=none;align=left;verticalAlign=middle;spacingTop=-1;spacingLeft=3;spacingRight=3;rotatable=0;labelPosition=right;points=[];portConstraint=eastwest;strokeColor=inherit;" parent="96N8lXyZkQnQ6zD-KgBr-14" vertex="1">
          <mxGeometry y="70" width="160" height="8" as="geometry" />
        </mxCell>
        <mxCell id="96N8lXyZkQnQ6zD-KgBr-17" value="+ takeDamage(int) : void&lt;br&gt;+ updateTexture() : void" style="text;strokeColor=none;fillColor=none;align=left;verticalAlign=top;spacingLeft=4;spacingRight=4;overflow=hidden;rotatable=0;points=[[0,0.5],[1,0.5]];portConstraint=eastwest;whiteSpace=wrap;html=1;" parent="96N8lXyZkQnQ6zD-KgBr-14" vertex="1">
          <mxGeometry y="78" width="160" height="50" as="geometry" />
        </mxCell>
        <mxCell id="96N8lXyZkQnQ6zD-KgBr-19" value="Extends" style="endArrow=block;endSize=16;endFill=0;html=1;rounded=0;exitX=0.5;exitY=0;exitDx=0;exitDy=0;entryX=0.919;entryY=1.038;entryDx=0;entryDy=0;entryPerimeter=0;" parent="1" source="96N8lXyZkQnQ6zD-KgBr-14" target="96N8lXyZkQnQ6zD-KgBr-4" edge="1">
          <mxGeometry width="160" relative="1" as="geometry">
            <mxPoint x="419" y="397" as="sourcePoint" />
            <mxPoint x="400" y="280" as="targetPoint" />
          </mxGeometry>
        </mxCell>
        <mxCell id="96N8lXyZkQnQ6zD-KgBr-22" value="&lt;div&gt;Obsidian&lt;/div&gt;" style="swimlane;fontStyle=1;align=center;verticalAlign=top;childLayout=stackLayout;horizontal=1;startSize=26;horizontalStack=0;resizeParent=1;resizeParentMax=0;resizeLast=0;collapsible=1;marginBottom=0;whiteSpace=wrap;html=1;" parent="1" vertex="1">
          <mxGeometry x="414" y="585" width="160" height="120" as="geometry" />
        </mxCell>
        <mxCell id="96N8lXyZkQnQ6zD-KgBr-23" value="+ no more fields" style="text;strokeColor=none;fillColor=none;align=left;verticalAlign=top;spacingLeft=4;spacingRight=4;overflow=hidden;rotatable=0;points=[[0,0.5],[1,0.5]];portConstraint=eastwest;whiteSpace=wrap;html=1;" parent="96N8lXyZkQnQ6zD-KgBr-22" vertex="1">
          <mxGeometry y="26" width="160" height="26" as="geometry" />
        </mxCell>
        <mxCell id="96N8lXyZkQnQ6zD-KgBr-24" value="" style="line;strokeWidth=1;fillColor=none;align=left;verticalAlign=middle;spacingTop=-1;spacingLeft=3;spacingRight=3;rotatable=0;labelPosition=right;points=[];portConstraint=eastwest;strokeColor=inherit;" parent="96N8lXyZkQnQ6zD-KgBr-22" vertex="1">
          <mxGeometry y="52" width="160" height="8" as="geometry" />
        </mxCell>
        <mxCell id="96N8lXyZkQnQ6zD-KgBr-25" value="+ takeDamage(int) : immune to damage" style="text;strokeColor=none;fillColor=none;align=left;verticalAlign=top;spacingLeft=4;spacingRight=4;overflow=hidden;rotatable=0;points=[[0,0.5],[1,0.5]];portConstraint=eastwest;whiteSpace=wrap;html=1;" parent="96N8lXyZkQnQ6zD-KgBr-22" vertex="1">
          <mxGeometry y="60" width="160" height="60" as="geometry" />
        </mxCell>
        <mxCell id="96N8lXyZkQnQ6zD-KgBr-27" value="Extends" style="endArrow=block;endSize=16;endFill=0;html=1;rounded=0;exitX=0.5;exitY=0;exitDx=0;exitDy=0;entryX=0.513;entryY=1.115;entryDx=0;entryDy=0;entryPerimeter=0;" parent="1" source="96N8lXyZkQnQ6zD-KgBr-22" target="96N8lXyZkQnQ6zD-KgBr-17" edge="1">
          <mxGeometry width="160" relative="1" as="geometry">
            <mxPoint x="763" y="506" as="sourcePoint" />
            <mxPoint x="560" y="360" as="targetPoint" />
          </mxGeometry>
        </mxCell>
        <mxCell id="96N8lXyZkQnQ6zD-KgBr-28" value="&lt;div&gt;TNT&lt;/div&gt;" style="swimlane;fontStyle=1;align=center;verticalAlign=top;childLayout=stackLayout;horizontal=1;startSize=26;horizontalStack=0;resizeParent=1;resizeParentMax=0;resizeLast=0;collapsible=1;marginBottom=0;whiteSpace=wrap;html=1;" parent="1" vertex="1">
          <mxGeometry x="650" y="580" width="160" height="120" as="geometry" />
        </mxCell>
        <mxCell id="96N8lXyZkQnQ6zD-KgBr-29" value="+ no more fields" style="text;strokeColor=none;fillColor=none;align=left;verticalAlign=top;spacingLeft=4;spacingRight=4;overflow=hidden;rotatable=0;points=[[0,0.5],[1,0.5]];portConstraint=eastwest;whiteSpace=wrap;html=1;" parent="96N8lXyZkQnQ6zD-KgBr-28" vertex="1">
          <mxGeometry y="26" width="160" height="26" as="geometry" />
        </mxCell>
        <mxCell id="96N8lXyZkQnQ6zD-KgBr-30" value="" style="line;strokeWidth=1;fillColor=none;align=left;verticalAlign=middle;spacingTop=-1;spacingLeft=3;spacingRight=3;rotatable=0;labelPosition=right;points=[];portConstraint=eastwest;strokeColor=inherit;" parent="96N8lXyZkQnQ6zD-KgBr-28" vertex="1">
          <mxGeometry y="52" width="160" height="8" as="geometry" />
        </mxCell>
        <mxCell id="96N8lXyZkQnQ6zD-KgBr-31" value="+ takeDamage(int) : explode on takeDamage" style="text;strokeColor=none;fillColor=none;align=left;verticalAlign=top;spacingLeft=4;spacingRight=4;overflow=hidden;rotatable=0;points=[[0,0.5],[1,0.5]];portConstraint=eastwest;whiteSpace=wrap;html=1;" parent="96N8lXyZkQnQ6zD-KgBr-28" vertex="1">
          <mxGeometry y="60" width="160" height="60" as="geometry" />
        </mxCell>
        <mxCell id="96N8lXyZkQnQ6zD-KgBr-32" value="Extends" style="endArrow=block;endSize=16;endFill=0;html=1;rounded=0;exitX=0.5;exitY=0;exitDx=0;exitDy=0;entryX=0.706;entryY=0.923;entryDx=0;entryDy=0;entryPerimeter=0;" parent="1" source="96N8lXyZkQnQ6zD-KgBr-28" target="96N8lXyZkQnQ6zD-KgBr-17" edge="1">
          <mxGeometry width="160" relative="1" as="geometry">
            <mxPoint x="610" y="606" as="sourcePoint" />
            <mxPoint x="728" y="460" as="targetPoint" />
          </mxGeometry>
        </mxCell>
        <mxCell id="96N8lXyZkQnQ6zD-KgBr-33" value="MovableObject" style="swimlane;fontStyle=1;align=center;verticalAlign=top;childLayout=stackLayout;horizontal=1;startSize=26;horizontalStack=0;resizeParent=1;resizeParentMax=0;resizeLast=0;collapsible=1;marginBottom=0;whiteSpace=wrap;html=1;" parent="1" vertex="1">
          <mxGeometry x="70" y="310" width="160" height="140" as="geometry" />
        </mxCell>
        <mxCell id="96N8lXyZkQnQ6zD-KgBr-34" value="# dx, dy" style="text;strokeColor=none;fillColor=none;align=left;verticalAlign=top;spacingLeft=4;spacingRight=4;overflow=hidden;rotatable=0;points=[[0,0.5],[1,0.5]];portConstraint=eastwest;whiteSpace=wrap;html=1;" parent="96N8lXyZkQnQ6zD-KgBr-33" vertex="1">
          <mxGeometry y="26" width="160" height="26" as="geometry" />
        </mxCell>
        <mxCell id="96N8lXyZkQnQ6zD-KgBr-35" value="" style="line;strokeWidth=1;fillColor=none;align=left;verticalAlign=middle;spacingTop=-1;spacingLeft=3;spacingRight=3;rotatable=0;labelPosition=right;points=[];portConstraint=eastwest;strokeColor=inherit;" parent="96N8lXyZkQnQ6zD-KgBr-33" vertex="1">
          <mxGeometry y="52" width="160" height="8" as="geometry" />
        </mxCell>
        <mxCell id="96N8lXyZkQnQ6zD-KgBr-36" value="+ move()&lt;br&gt;+ setVelocity(int, int) : void&lt;br&gt;+ getDx()&lt;br&gt;+ getDy()" style="text;strokeColor=none;fillColor=none;align=left;verticalAlign=top;spacingLeft=4;spacingRight=4;overflow=hidden;rotatable=0;points=[[0,0.5],[1,0.5]];portConstraint=eastwest;whiteSpace=wrap;html=1;" parent="96N8lXyZkQnQ6zD-KgBr-33" vertex="1">
          <mxGeometry y="60" width="160" height="80" as="geometry" />
        </mxCell>
        <mxCell id="96N8lXyZkQnQ6zD-KgBr-37" value="Extends" style="endArrow=block;endSize=16;endFill=0;html=1;rounded=0;exitX=0.5;exitY=0;exitDx=0;exitDy=0;entryX=0.381;entryY=1.027;entryDx=0;entryDy=0;entryPerimeter=0;" parent="1" source="96N8lXyZkQnQ6zD-KgBr-33" target="96N8lXyZkQnQ6zD-KgBr-4" edge="1">
          <mxGeometry width="160" relative="1" as="geometry">
            <mxPoint x="350" y="464" as="sourcePoint" />
            <mxPoint x="441" y="220" as="targetPoint" />
          </mxGeometry>
        </mxCell>
        <mxCell id="96N8lXyZkQnQ6zD-KgBr-18" value="Extends" style="endArrow=block;endSize=16;endFill=0;html=1;rounded=0;exitX=0.5;exitY=0;exitDx=0;exitDy=0;entryX=0.5;entryY=1.025;entryDx=0;entryDy=0;entryPerimeter=0;" parent="1" source="96N8lXyZkQnQ6zD-KgBr-10" target="96N8lXyZkQnQ6zD-KgBr-36" edge="1">
          <mxGeometry width="160" relative="1" as="geometry">
            <mxPoint x="100" y="759.5" as="sourcePoint" />
            <mxPoint x="190.96000000000004" y="429.9960000000001" as="targetPoint" />
          </mxGeometry>
        </mxCell>
        <mxCell id="96N8lXyZkQnQ6zD-KgBr-38" value="GameManager" style="swimlane;fontStyle=1;align=center;verticalAlign=top;childLayout=stackLayout;horizontal=1;startSize=26;horizontalStack=0;resizeParent=1;resizeParentMax=0;resizeLast=0;collapsible=1;marginBottom=0;whiteSpace=wrap;html=1;" parent="1" vertex="1">
          <mxGeometry x="590" y="-90" width="160" height="250" as="geometry" />
        </mxCell>
        <mxCell id="96N8lXyZkQnQ6zD-KgBr-39" value="- no fields" style="text;strokeColor=none;fillColor=none;align=left;verticalAlign=top;spacingLeft=4;spacingRight=4;overflow=hidden;rotatable=0;points=[[0,0.5],[1,0.5]];portConstraint=eastwest;whiteSpace=wrap;html=1;" parent="96N8lXyZkQnQ6zD-KgBr-38" vertex="1">
          <mxGeometry y="26" width="160" height="104" as="geometry" />
        </mxCell>
        <mxCell id="96N8lXyZkQnQ6zD-KgBr-40" value="" style="line;strokeWidth=1;fillColor=none;align=left;verticalAlign=middle;spacingTop=-1;spacingLeft=3;spacingRight=3;rotatable=0;labelPosition=right;points=[];portConstraint=eastwest;strokeColor=inherit;" parent="96N8lXyZkQnQ6zD-KgBr-38" vertex="1">
          <mxGeometry y="130" width="160" height="8" as="geometry" />
        </mxCell>
        <mxCell id="96N8lXyZkQnQ6zD-KgBr-41" value="+ main() : start point of program&lt;div&gt;+ gameloop(): run every ticks&lt;br&gt;+ GameManager(): contructor&lt;/div&gt;" style="text;strokeColor=none;fillColor=none;align=left;verticalAlign=top;spacingLeft=4;spacingRight=4;overflow=hidden;rotatable=0;points=[[0,0.5],[1,0.5]];portConstraint=eastwest;whiteSpace=wrap;html=1;" parent="96N8lXyZkQnQ6zD-KgBr-38" vertex="1">
          <mxGeometry y="138" width="160" height="112" as="geometry" />
        </mxCell>
        <mxCell id="96N8lXyZkQnQ6zD-KgBr-42" value="GameInfo : Singleton" style="swimlane;fontStyle=1;align=center;verticalAlign=top;childLayout=stackLayout;horizontal=1;startSize=26;horizontalStack=0;resizeParent=1;resizeParentMax=0;resizeLast=0;collapsible=1;marginBottom=0;whiteSpace=wrap;html=1;" parent="1" vertex="1">
          <mxGeometry x="-40" y="-30" width="160" height="250" as="geometry" />
        </mxCell>
        <mxCell id="96N8lXyZkQnQ6zD-KgBr-43" value="- container : List&amp;lt;GameObject&amp;gt;" style="text;strokeColor=none;fillColor=none;align=left;verticalAlign=top;spacingLeft=4;spacingRight=4;overflow=hidden;rotatable=0;points=[[0,0.5],[1,0.5]];portConstraint=eastwest;whiteSpace=wrap;html=1;" parent="96N8lXyZkQnQ6zD-KgBr-42" vertex="1">
          <mxGeometry y="26" width="160" height="104" as="geometry" />
        </mxCell>
        <mxCell id="96N8lXyZkQnQ6zD-KgBr-44" value="" style="line;strokeWidth=1;fillColor=none;align=left;verticalAlign=middle;spacingTop=-1;spacingLeft=3;spacingRight=3;rotatable=0;labelPosition=right;points=[];portConstraint=eastwest;strokeColor=inherit;" parent="96N8lXyZkQnQ6zD-KgBr-42" vertex="1">
          <mxGeometry y="130" width="160" height="8" as="geometry" />
        </mxCell>
        <mxCell id="96N8lXyZkQnQ6zD-KgBr-45" value="+ getInstance() : GameInfo&lt;br&gt;+ getObjects() : List&amp;lt;GameObject&amp;gt;" style="text;strokeColor=none;fillColor=none;align=left;verticalAlign=top;spacingLeft=4;spacingRight=4;overflow=hidden;rotatable=0;points=[[0,0.5],[1,0.5]];portConstraint=eastwest;whiteSpace=wrap;html=1;" parent="96N8lXyZkQnQ6zD-KgBr-42" vertex="1">
          <mxGeometry y="138" width="160" height="112" as="geometry" />
        </mxCell>
        <mxCell id="qcrRgAbOHtoKTw-TtP7--1" value="Powerup" style="swimlane;fontStyle=1;align=center;verticalAlign=top;childLayout=stackLayout;horizontal=1;startSize=26;horizontalStack=0;resizeParent=1;resizeParentMax=0;resizeLast=0;collapsible=1;marginBottom=0;whiteSpace=wrap;html=1;" vertex="1" parent="1">
          <mxGeometry x="-400" y="-30" width="160" height="146" as="geometry" />
        </mxCell>
        <mxCell id="qcrRgAbOHtoKTw-TtP7--3" value="" style="line;strokeWidth=1;fillColor=none;align=left;verticalAlign=middle;spacingTop=-1;spacingLeft=3;spacingRight=3;rotatable=0;labelPosition=right;points=[];portConstraint=eastwest;strokeColor=inherit;" vertex="1" parent="qcrRgAbOHtoKTw-TtP7--1">
          <mxGeometry y="26" width="160" height="8" as="geometry" />
        </mxCell>
        <mxCell id="qcrRgAbOHtoKTw-TtP7--4" value="+ ApplyPowerup() : void" style="text;strokeColor=none;fillColor=none;align=left;verticalAlign=top;spacingLeft=4;spacingRight=4;overflow=hidden;rotatable=0;points=[[0,0.5],[1,0.5]];portConstraint=eastwest;whiteSpace=wrap;html=1;" vertex="1" parent="qcrRgAbOHtoKTw-TtP7--1">
          <mxGeometry y="34" width="160" height="112" as="geometry" />
        </mxCell>
        <mxCell id="qcrRgAbOHtoKTw-TtP7--5" value="StrikethroughBall&lt;div&gt;&lt;br&gt;&lt;/div&gt;" style="swimlane;fontStyle=1;align=center;verticalAlign=top;childLayout=stackLayout;horizontal=1;startSize=26;horizontalStack=0;resizeParent=1;resizeParentMax=0;resizeLast=0;collapsible=1;marginBottom=0;whiteSpace=wrap;html=1;" vertex="1" parent="1">
          <mxGeometry x="180" y="790" width="160" height="114" as="geometry" />
        </mxCell>
        <mxCell id="qcrRgAbOHtoKTw-TtP7--7" value="" style="line;strokeWidth=1;fillColor=none;align=left;verticalAlign=middle;spacingTop=-1;spacingLeft=3;spacingRight=3;rotatable=0;labelPosition=right;points=[];portConstraint=eastwest;strokeColor=inherit;" vertex="1" parent="qcrRgAbOHtoKTw-TtP7--5">
          <mxGeometry y="26" width="160" height="8" as="geometry" />
        </mxCell>
        <mxCell id="qcrRgAbOHtoKTw-TtP7--8" value="+ update(): Still collide with Brick but won&#39;t bounceOff" style="text;strokeColor=none;fillColor=none;align=left;verticalAlign=top;spacingLeft=4;spacingRight=4;overflow=hidden;rotatable=0;points=[[0,0.5],[1,0.5]];portConstraint=eastwest;whiteSpace=wrap;html=1;" vertex="1" parent="qcrRgAbOHtoKTw-TtP7--5">
          <mxGeometry y="34" width="160" height="80" as="geometry" />
        </mxCell>
        <mxCell id="qcrRgAbOHtoKTw-TtP7--10" value="Extends" style="endArrow=block;endSize=16;endFill=0;html=1;rounded=0;exitX=0.5;exitY=0;exitDx=0;exitDy=0;entryX=0.456;entryY=0.975;entryDx=0;entryDy=0;entryPerimeter=0;" edge="1" parent="1" source="qcrRgAbOHtoKTw-TtP7--5" target="96N8lXyZkQnQ6zD-KgBr-13">
          <mxGeometry width="160" relative="1" as="geometry">
            <mxPoint x="267" y="732" as="sourcePoint" />
            <mxPoint x="220" y="610" as="targetPoint" />
          </mxGeometry>
        </mxCell>
      </root>
    </mxGraphModel>
  </diagram>
</mxfile>
